<svg width="1024" height="205" viewBox="0 0 1024 205" fill="none" xmlns="http://www.w3.org/2000/svg">
<path d="M257.52 104.214C257.52 59.7071 221.467 23.6538 176.96 23.6538C132.453 23.6538 96.4 59.7071 96.4 104.214C96.4 148.694 132.453 184.774 176.96 184.774C221.467 184.774 257.52 148.694 257.52 104.214Z" fill="#EBEDF0"/>
<mask id="mask0_114_454" style="mask-type:luminance" maskUnits="userSpaceOnUse" x="170" y="100" width="107" height="104">
<path d="M170.667 100.694H276.053V203.094H170.667V100.694Z" fill="white"/>
</mask>
<g mask="url(#mask0_114_454)">
<path d="M249.92 199.734C247.227 200.507 244.347 200.907 241.413 200.907C223.627 200.907 209.2 186.454 209.2 168.667C209.2 163.947 210.213 159.467 212.053 155.44L181.787 125.174L183.413 123.547L175.36 115.494L189.867 100.987L228.187 139.307C232.213 137.467 236.693 136.454 241.413 136.454C259.2 136.454 273.653 150.88 273.653 168.667C273.653 171.6 273.253 174.48 272.48 177.174L251.093 155.787C239.387 157.44 230.187 166.64 228.533 178.347L249.92 199.734Z" fill="#3144B5"/>
</g>
<mask id="mask1_114_454" style="mask-type:luminance" maskUnits="userSpaceOnUse" x="77" y="5" width="108" height="103">
<path d="M77.8667 5.12012H184.32V107.52H77.8667V5.12012Z" fill="white"/>
</mask>
<g mask="url(#mask1_114_454)">
<path d="M180.187 91.3335L165.68 105.84L157.627 97.7602L156.027 99.3869L125.76 69.1202C121.733 70.9602 117.253 72.0002 112.507 72.0002C94.72 72.0002 80.2933 57.5469 80.2933 39.7602C80.2933 36.8269 80.6667 33.9735 81.44 31.2535L102.853 52.6669C114.533 51.0135 123.76 41.7869 125.413 30.1069L104 8.69354C106.72 7.9202 109.573 7.54688 112.507 7.54688C130.293 7.54688 144.747 21.9735 144.747 39.7602C144.747 44.5069 143.707 48.9869 141.867 53.0135L180.187 91.3335Z" fill="#3144B5"/>
</g>
<path d="M183.413 123.547L178.64 128.32C177.653 129.307 176.427 129.947 175.04 130.134C172.267 130.534 169.707 131.867 167.76 133.894C165.787 135.894 164.533 138.48 164.187 141.227C164 142.614 163.36 143.947 162.347 144.96L157.627 149.654C157.147 145.334 154.213 141.627 150.08 140.214C145.947 138.747 141.387 139.787 138.293 142.88C141.387 139.787 142.427 135.227 140.987 131.094C139.547 126.96 135.84 124.027 131.52 123.547L136.24 118.854C137.227 117.84 138.56 117.2 139.947 117.014C142.72 116.667 145.28 115.387 147.28 113.467C149.307 111.467 150.64 108.934 151.067 106.16C151.253 104.8 151.893 103.52 152.853 102.534L157.627 97.7603L183.413 123.547Z" fill="#3144B5"/>
<mask id="mask2_114_454" style="mask-type:luminance" maskUnits="userSpaceOnUse" x="177" y="5" width="100" height="103">
<path d="M177.493 5.12012H276.053V107.52H177.493V5.12012Z" fill="white"/>
</mask>
<g mask="url(#mask2_114_454)">
<path d="M273.653 13.9735L257.52 39.7602H251.093L189.867 100.987L180.187 91.3335L241.413 30.1069V23.6535L267.2 7.54688L273.653 13.9735Z" fill="white"/>
</g>
<path d="M189.867 100.987L175.36 115.494L165.68 105.841L180.187 91.334L189.867 100.987Z" fill="white"/>
<mask id="mask3_114_454" style="mask-type:luminance" maskUnits="userSpaceOnUse" x="77" y="121" width="87" height="83">
<path d="M77.8667 121.174H163.84V203.094H77.8667V121.174Z" fill="white"/>
</mask>
<g mask="url(#mask3_114_454)">
<path d="M138.293 142.88C141.387 139.787 145.947 138.747 150.08 140.214C154.213 141.627 157.147 145.334 157.627 149.654L111.68 195.6C107.68 199.6 102 201.494 96.4 200.694L95.8667 200.64C87.92 199.494 81.7067 193.254 80.5333 185.36L80.48 184.774C79.68 179.174 81.5733 173.494 85.5733 169.52L131.52 123.547C135.84 124.027 139.547 126.96 140.987 131.094C142.427 135.227 141.387 139.787 138.293 142.88Z" fill="#3144B5"/>
</g>
<mask id="mask4_114_454" style="mask-type:luminance" maskUnits="userSpaceOnUse" x="187" y="108" width="90" height="96">
<path d="M187.44 108.24H276.053V203.307H187.44V108.24Z" fill="white"/>
</mask>
<g mask="url(#mask4_114_454)">
<path d="M241.413 203.307C222.32 203.307 206.773 187.76 206.773 168.667C206.773 164.267 207.6 160.027 209.2 155.974L189.76 136.534C188.8 135.6 188.8 134.054 189.76 133.12C190.693 132.187 192.24 132.187 193.173 133.12L213.76 153.707C214.48 154.427 214.667 155.494 214.267 156.427C212.507 160.294 211.6 164.4 211.6 168.667C211.6 185.12 224.987 198.48 241.413 198.48C242.64 198.48 243.84 198.4 245.04 198.267L226.827 180.054C226.267 179.52 226.027 178.747 226.133 178C227.92 165.307 238.053 155.174 250.747 153.387C251.52 153.28 252.267 153.547 252.8 154.08L271.013 172.294C271.147 171.094 271.227 169.894 271.227 168.667C271.227 152.24 257.867 138.854 241.413 138.854C237.147 138.854 233.04 139.76 229.173 141.52C228.267 141.92 227.173 141.734 226.453 141.014L197.813 112.374C196.88 111.44 196.88 109.894 197.813 108.96C198.747 108 200.293 108 201.227 108.96L228.72 136.454C232.747 134.854 237.013 134.027 241.413 134.027C260.507 134.027 276.053 149.574 276.053 168.667C276.053 171.84 275.627 174.934 274.8 177.84C274.587 178.667 273.92 179.307 273.093 179.52C272.267 179.734 271.387 179.494 270.773 178.88L250.267 158.347C240.613 160.214 232.96 167.867 231.12 177.52L251.627 198.027C252.24 198.64 252.48 199.52 252.267 200.347C252.053 201.174 251.413 201.84 250.587 202.054C247.68 202.907 244.587 203.307 241.413 203.307Z" fill="#141D54"/>
</g>
<mask id="mask5_114_454" style="mask-type:luminance" maskUnits="userSpaceOnUse" x="77" y="5" width="101" height="89">
<path d="M77.8667 5.12012H177.493V93.8668H77.8667V5.12012Z" fill="white"/>
</mask>
<g mask="url(#mask5_114_454)">
<path d="M146.347 92.1334C145.733 92.1334 145.12 91.8935 144.64 91.4401L125.2 72.0001C121.173 73.6001 116.907 74.4001 112.507 74.4001C93.4134 74.4001 77.8667 58.8535 77.8667 39.7601C77.8667 36.5868 78.2934 33.5201 79.12 30.5868C79.36 29.7601 80 29.1201 80.8267 28.9068C81.68 28.6934 82.56 28.9334 83.1467 29.5468L103.68 50.0801C113.307 48.2134 120.96 40.5601 122.827 30.9334L102.293 10.4001C101.68 9.81345 101.44 8.93345 101.68 8.08012C101.867 7.25345 102.507 6.61345 103.36 6.37345C106.267 5.54678 109.333 5.12012 112.507 5.12012C131.6 5.12012 147.147 20.6668 147.147 39.7601C147.147 44.1601 146.347 48.4001 144.747 52.4535L172.24 79.9468C173.173 80.8801 173.173 82.4268 172.24 83.3601C171.28 84.3201 169.76 84.3201 168.8 83.3601L140.16 54.7201C139.44 54.0001 139.253 52.9068 139.653 52.0001C141.44 48.1601 142.32 44.0268 142.32 39.7601C142.32 23.3335 128.96 9.94678 112.507 9.94678C111.28 9.94678 110.08 10.0268 108.907 10.1601L127.12 28.3734C127.653 28.9334 127.92 29.6801 127.787 30.4268C126 43.1468 115.893 53.2534 103.173 55.0401C102.427 55.1468 101.68 54.9068 101.12 54.3735L82.9067 36.1601C82.7734 37.3334 82.6934 38.5334 82.6934 39.7601C82.6934 56.2134 96.08 69.5734 112.507 69.5734C116.773 69.5734 120.907 68.6668 124.747 66.9068C125.653 66.5068 126.747 66.6934 127.467 67.4134L148.053 88.0001C149.013 88.9601 149.013 90.4801 148.053 91.4401C147.573 91.8935 146.96 92.1334 146.347 92.1334Z" fill="#141D54"/>
</g>
<mask id="mask6_114_454" style="mask-type:luminance" maskUnits="userSpaceOnUse" x="161" y="5" width="116" height="113">
<path d="M161.653 5.12012H276.053V117.92H161.653V5.12012Z" fill="white"/>
</mask>
<g mask="url(#mask6_114_454)">
<path d="M175.36 117.92C174.747 117.92 174.107 117.68 173.653 117.2C172.693 116.267 172.693 114.72 173.653 113.787L249.387 38.0535C249.84 37.6002 250.453 37.3335 251.093 37.3335H256.187L270.56 14.3468L266.853 10.6135L243.84 24.9868V30.1068C243.84 30.7468 243.573 31.3602 243.12 31.8135L167.387 107.547C166.453 108.48 164.907 108.48 163.973 107.547C163.04 106.587 163.04 105.067 163.973 104.107L239.013 29.0935V23.6535C239.013 22.8268 239.44 22.0268 240.133 21.6002L265.92 5.49352C266.88 4.90685 268.107 5.04018 268.907 5.81351L275.36 12.2668C276.16 13.0668 276.293 14.3202 275.707 15.2535L259.573 41.0402C259.147 41.7602 258.373 42.1868 257.52 42.1868H252.08L177.067 117.2C176.587 117.68 175.973 117.92 175.36 117.92Z" fill="#141D54"/>
</g>
<mask id="mask7_114_454" style="mask-type:luminance" maskUnits="userSpaceOnUse" x="77" y="95" width="111" height="109">
<path d="M77.8667 95.3601H187.44V203.307H77.8667V95.3601Z" fill="white"/>
</mask>
<g mask="url(#mask7_114_454)">
<path d="M157.626 101.174L154.56 104.267C153.973 104.854 153.573 105.654 153.44 106.507C152.933 109.787 151.413 112.8 148.986 115.2C146.613 117.494 143.493 118.987 140.24 119.414C139.386 119.52 138.56 119.947 137.946 120.56L87.2798 171.2C83.8131 174.667 82.1598 179.6 82.8531 184.454L82.9331 185.094C83.9465 191.814 89.3865 197.254 96.1865 198.24L96.6665 198.294C101.573 198.987 106.506 197.36 109.973 193.92L160.613 143.254C161.28 142.614 161.68 141.814 161.76 140.96C162.186 137.68 163.706 134.56 166.026 132.214C168.373 129.787 171.36 128.24 174.666 127.734C175.546 127.627 176.32 127.254 176.933 126.614L180 123.547L157.626 101.174ZM98.9065 203.307C97.9731 203.307 97.0131 203.227 96.0531 203.094L95.5731 203.04C86.5865 201.734 79.4665 194.614 78.1331 185.707L78.0798 185.067C77.1731 178.8 79.3331 172.32 83.8665 167.814L134.533 117.147C135.866 115.787 137.68 114.88 139.6 114.614C141.866 114.32 143.973 113.307 145.6 111.734C147.253 110.107 148.32 108.027 148.666 105.787C148.933 103.947 149.813 102.16 151.146 100.827L155.92 96.0535C156.853 95.1202 158.4 95.1202 159.333 96.0535L185.12 121.84C186.053 122.774 186.053 124.32 185.12 125.254L180.346 130.027C178.986 131.387 177.253 132.267 175.36 132.507C173.146 132.854 171.093 133.92 169.493 135.574C167.866 137.2 166.853 139.334 166.56 141.547C166.346 143.494 165.44 145.307 164 146.694L113.386 197.334C109.546 201.174 104.293 203.307 98.9065 203.307Z" fill="#141D54"/>
</g>
<path d="M96.4001 187.201C95.7867 187.201 95.1734 186.961 94.6934 186.507C93.7334 185.547 93.7334 184.027 94.6934 183.067L136.587 141.174C137.52 140.241 139.067 140.241 140 141.174C140.96 142.134 140.96 143.654 140 144.614L98.1067 186.507C97.6267 186.961 97.0134 187.201 96.4001 187.201Z" fill="#141D54"/>
<path d="M157.627 152.08C156.4 152.08 155.36 151.146 155.227 149.92C154.853 146.533 152.507 143.6 149.307 142.506C146 141.333 142.453 142.133 140 144.613C139.067 145.546 137.52 145.546 136.587 144.613C136.107 144.133 135.867 143.493 135.867 142.88C135.867 142.266 136.107 141.653 136.587 141.173C139.04 138.746 139.84 135.173 138.693 131.893C137.573 128.666 134.667 126.346 131.253 125.946C129.947 125.813 128.987 124.613 129.12 123.28C129.28 121.946 130.507 120.986 131.787 121.146C137.04 121.733 141.547 125.333 143.253 130.293C144.053 132.613 144.213 135.066 143.787 137.413C146.133 136.96 148.587 137.12 150.907 137.92C155.867 139.626 159.44 144.133 160.027 149.386C160.187 150.693 159.227 151.893 157.893 152.053C157.813 152.053 157.707 152.08 157.627 152.08Z" fill="#141D54"/>
<path d="M369.963 15.3601L397.163 92.0534L424.15 15.3601H452.736V121.067H430.87V92.1601L433.11 42.2401L404.523 121.067H389.59L361.11 42.3468L363.35 92.1601V121.067H341.483V15.3601H369.963Z" fill="#1C1C1C"/>
<path d="M531.426 99.3068H493.239L485.986 121.067H462.839L502.199 15.3601H522.359L561.933 121.067H538.786L531.426 99.3068ZM499.106 81.6001H525.559L512.226 42.0268L499.106 81.6001Z" fill="#1C1C1C"/>
<path d="M657.682 121.067H635.922L593.576 51.5201V121.067H571.709V15.3601H593.576L636.029 85.0134V15.3601H657.682V121.067Z" fill="#1C1C1C"/>
<path d="M756.767 15.3601V85.0134C756.767 96.5334 753.14 105.68 745.887 112.427C738.634 119.2 728.74 122.56 716.234 122.56C703.86 122.56 694.047 119.307 686.794 112.747C679.541 106.213 675.834 97.2268 675.701 85.7601V15.3601H697.46V85.1201C697.46 92.0268 699.087 97.0668 702.367 100.267C705.7 103.467 710.314 105.067 716.234 105.067C728.447 105.067 734.687 98.6401 734.9 85.7601V15.3601H756.767Z" fill="#1C1C1C"/>
<path d="M834.233 99.3068H796.046L788.793 121.067H765.646L805.006 15.3601H825.166L864.739 121.067H841.593L834.233 99.3068ZM801.913 81.6001H828.366L815.033 42.0268L801.913 81.6001Z" fill="#1C1C1C"/>
<path d="M896.382 103.573H942.569V121.067H874.515V15.3601H896.382V103.573Z" fill="#1C1C1C"/>
<path d="M336.47 192.327V143.688H351.403C355.67 143.688 359.457 144.647 362.817 146.567C366.23 148.487 368.843 151.234 370.71 154.781C372.63 158.354 373.59 162.408 373.59 166.941V169.181C373.59 173.661 372.657 177.687 370.817 181.234C368.95 184.727 366.337 187.474 362.923 189.447C359.563 191.367 355.777 192.327 351.51 192.327H336.47ZM346.497 151.794V184.327H351.297C355.19 184.327 358.177 183.047 360.257 180.487C362.31 177.927 363.377 174.274 363.457 169.501V166.941C363.457 161.981 362.417 158.194 360.363 155.634C358.283 153.074 355.297 151.794 351.403 151.794H346.497Z" fill="#1C1C1C"/>
<path d="M437.559 169.074C437.559 173.928 436.706 178.141 434.999 181.768C433.292 185.341 430.866 188.114 427.746 190.088C424.599 192.008 421.026 192.968 416.972 192.968C412.919 192.968 409.292 192.008 406.092 190.088C402.946 188.168 400.492 185.448 398.732 181.874C397.026 178.248 396.172 174.088 396.172 169.394V166.941C396.172 162.194 397.026 157.981 398.732 154.354C400.439 150.728 402.839 147.954 405.986 146.034C409.186 144.061 412.812 143.048 416.866 143.048C420.919 143.048 424.492 144.061 427.639 146.034C430.839 147.954 433.292 150.728 434.999 154.354C436.706 157.981 437.559 162.194 437.559 166.941V169.074ZM427.426 166.941C427.426 161.821 426.492 157.954 424.652 155.314C422.866 152.701 420.279 151.368 416.866 151.368C413.506 151.368 410.919 152.701 409.079 155.314C407.212 157.874 406.306 161.688 406.306 166.728V169.074C406.306 174.061 407.186 177.928 408.972 180.701C410.812 183.421 413.479 184.754 416.972 184.754C420.306 184.754 422.866 183.448 424.652 180.808C426.492 178.194 427.426 174.354 427.426 169.288V166.941Z" fill="#1C1C1C"/>
<path d="M508.436 143.688L520.916 178.994L533.396 143.688H546.516V192.327H536.49V178.994L537.45 156.061L524.33 192.327H517.503L504.383 156.167L505.45 178.994V192.327H495.423V143.688H508.436Z" fill="#1C1C1C"/>
<path d="M601.3 171.314H582.1V184.327H604.607V192.327H572.074V143.688H604.607V151.794H582.1V163.421H601.3V171.314Z" fill="#1C1C1C"/>
<path d="M665.374 176.114C665.001 181.394 663.081 185.501 659.614 188.488C656.121 191.474 651.534 192.968 645.854 192.968C639.588 192.968 634.681 190.888 631.134 186.674C627.561 182.488 625.801 176.728 625.801 169.394V166.408C625.801 161.794 626.601 157.714 628.254 154.141C629.881 150.594 632.228 147.848 635.294 145.928C638.334 144.008 641.908 143.048 645.961 143.048C651.561 143.048 656.094 144.594 659.508 147.634C662.974 150.621 664.974 154.834 665.481 160.221H655.454C655.241 157.101 654.334 154.834 652.788 153.394C651.294 151.981 649.001 151.261 645.961 151.261C642.601 151.261 640.121 152.488 638.494 154.888C636.841 157.234 635.988 160.941 635.934 165.981V169.608C635.934 174.888 636.708 178.754 638.281 181.234C639.908 183.661 642.441 184.861 645.854 184.861C648.974 184.861 651.294 184.168 652.788 182.728C654.281 181.314 655.161 179.101 655.454 176.114H665.374Z" fill="#1C1C1C"/>
<path d="M716.204 182.3H698.604L695.297 192.327H684.631L702.764 143.687H712.044L730.177 192.327H719.617L716.204 182.3ZM701.377 174.194H713.537L707.351 155.954L701.377 174.194ZM720.364 140.06V140.487H712.684L707.457 135.58L702.337 140.487H694.764V139.954L704.684 130.674H710.337L720.364 140.06Z" fill="#1C1C1C"/>
<path d="M791.022 192.327H780.995L761.582 160.327V192.327H751.555V143.688H761.582L781.102 175.794V143.688H791.022V192.327Z" fill="#1C1C1C"/>
<path d="M827.256 192.327H817.229V143.688H827.256V192.327Z" fill="#1C1C1C"/>
<path d="M891.365 176.114C890.992 181.394 889.072 185.501 885.605 188.488C882.112 191.474 877.525 192.968 871.845 192.968C865.578 192.968 860.672 190.888 857.125 186.674C853.552 182.488 851.792 176.728 851.792 169.394V166.408C851.792 161.794 852.592 157.714 854.245 154.141C855.872 150.594 858.218 147.848 861.285 145.928C864.325 144.008 867.898 143.048 871.952 143.048C877.552 143.048 882.085 144.594 885.498 147.634C888.965 150.621 890.965 154.834 891.472 160.221H881.445C881.232 157.101 880.325 154.834 878.778 153.394C877.285 151.981 874.992 151.261 871.952 151.261C868.592 151.261 866.112 152.488 864.485 154.888C862.832 157.234 861.978 160.941 861.925 165.981V169.608C861.925 174.888 862.698 178.754 864.272 181.234C865.898 183.661 868.432 184.861 871.845 184.861C874.965 184.861 877.285 184.168 878.778 182.728C880.272 181.314 881.152 179.101 881.445 176.114H891.365Z" fill="#1C1C1C"/>
<path d="M954.674 169.074C954.674 173.928 953.821 178.141 952.114 181.768C950.408 185.341 947.981 188.114 944.861 190.088C941.714 192.008 938.141 192.968 934.088 192.968C930.034 192.968 926.408 192.008 923.208 190.088C920.061 188.168 917.608 185.448 915.848 181.874C914.141 178.248 913.288 174.088 913.288 169.394V166.941C913.288 162.194 914.141 157.981 915.848 154.354C917.554 150.728 919.954 147.954 923.101 146.034C926.301 144.061 929.928 143.048 933.981 143.048C938.034 143.048 941.608 144.061 944.754 146.034C947.954 147.954 950.408 150.728 952.114 154.354C953.821 157.981 954.674 162.194 954.674 166.941V169.074ZM944.541 166.941C944.541 161.821 943.608 157.954 941.768 155.314C939.981 152.701 937.394 151.368 933.981 151.368C930.621 151.368 928.034 152.701 926.194 155.314C924.328 157.874 923.421 161.688 923.421 166.728V169.074C923.421 174.061 924.301 177.928 926.088 180.701C927.928 183.421 930.594 184.754 934.088 184.754C937.421 184.754 939.981 183.448 941.768 180.808C943.608 178.194 944.541 174.354 944.541 169.288V166.941Z" fill="#1C1C1C"/>
</svg>
