<svg width="189" height="40" viewBox="0 0 189 40" fill="none" xmlns="http://www.w3.org/2000/svg">
<path fill-rule="evenodd" clip-rule="evenodd" d="M7.5 10C7.5 8.61929 8.61929 7.5 10 7.5H13.75C15.1307 7.5 16.25 8.61929 16.25 10V30C16.25 31.3807 15.1307 32.5 13.75 32.5H10C8.61929 32.5 7.5 31.3807 7.5 30V10ZM13.75 10H10V30H13.75V10Z" fill="#00B37E"/>
<path fill-rule="evenodd" clip-rule="evenodd" d="M23.75 10C23.75 8.61929 24.8693 7.5 26.25 7.5H30C31.3807 7.5 32.5 8.61929 32.5 10V30C32.5 31.3807 31.3807 32.5 30 32.5H26.25C24.8693 32.5 23.75 31.3807 23.75 30V10ZM30 10H26.25V30H30V10Z" fill="#00B37E"/>
<path fill-rule="evenodd" clip-rule="evenodd" d="M30 12.5C30 11.8096 30.5596 11.25 31.25 11.25H35C35.663 11.25 36.2989 11.5134 36.7678 11.9822C37.2366 12.4511 37.5 13.087 37.5 13.75V26.25C37.5 26.913 37.2366 27.5489 36.7678 28.0178C36.2989 28.4866 35.663 28.75 35 28.75H31.25C30.5596 28.75 30 28.1904 30 27.5C30 26.8096 30.5596 26.25 31.25 26.25H35V13.75H31.25C30.5596 13.75 30 13.1904 30 12.5Z" fill="#00B37E"/>
<path fill-rule="evenodd" clip-rule="evenodd" d="M3.23223 11.9822C3.70107 11.5134 4.33696 11.25 5 11.25H8.75C9.44036 11.25 10 11.8096 10 12.5C10 13.1904 9.44036 13.75 8.75 13.75H5V26.25H8.75C9.44036 26.25 10 26.8096 10 27.5C10 28.1904 9.44036 28.75 8.75 28.75H5C4.33696 28.75 3.70108 28.4866 3.23223 28.0178C2.76339 27.5489 2.5 26.913 2.5 26.25V13.75C2.5 13.087 2.76339 12.4511 3.23223 11.9822Z" fill="#00B37E"/>
<path fill-rule="evenodd" clip-rule="evenodd" d="M13.75 20C13.75 19.3096 14.3096 18.75 15 18.75H25C25.6904 18.75 26.25 19.3096 26.25 20C26.25 20.6904 25.6904 21.25 25 21.25H15C14.3096 21.25 13.75 20.6904 13.75 20Z" fill="#00B37E"/>
<path fill-rule="evenodd" clip-rule="evenodd" d="M35 20C35 19.3096 35.5596 18.75 36.25 18.75H38.75C39.4404 18.75 40 19.3096 40 20C40 20.6904 39.4404 21.25 38.75 21.25H36.25C35.5596 21.25 35 20.6904 35 20Z" fill="#00B37E"/>
<path fill-rule="evenodd" clip-rule="evenodd" d="M0 20C0 19.3096 0.559644 18.75 1.25 18.75H3.75C4.44036 18.75 5 19.3096 5 20C5 20.6904 4.44036 21.25 3.75 21.25H1.25C0.559644 21.25 0 20.6904 0 20Z" fill="#00B37E"/>
<path d="M64.0757 20.5527V26.876C63.8722 27.1771 63.5223 27.5107 63.0259 27.877C62.5295 28.2432 61.8621 28.5646 61.0239 28.8413C60.1857 29.1099 59.144 29.2441 57.8989 29.2441C56.8573 29.2441 55.901 29.057 55.0303 28.6826C54.1595 28.3083 53.4027 27.7671 52.7598 27.0591C52.125 26.3429 51.6326 25.4844 51.2827 24.4834C50.9409 23.4824 50.77 22.3594 50.77 21.1143V18.9658C50.77 17.7451 50.9287 16.6465 51.2461 15.6699C51.5635 14.6852 52.0233 13.8429 52.6255 13.1431C53.2277 12.4432 53.952 11.9102 54.7983 11.5439C55.6528 11.1696 56.609 10.9824 57.667 10.9824C58.9854 10.9824 60.0962 11.2103 60.9995 11.666C61.9028 12.1217 62.6068 12.7484 63.1113 13.5459C63.624 14.3353 63.9414 15.2305 64.0635 16.2314H62.562C62.4481 15.5234 62.2121 14.8724 61.854 14.2783C61.4959 13.6761 60.9751 13.1919 60.2915 12.8257C59.616 12.4595 58.7412 12.2764 57.667 12.2764C56.8044 12.2764 56.0353 12.4351 55.3599 12.7524C54.6925 13.0698 54.131 13.5215 53.6753 14.1074C53.2196 14.6934 52.8737 15.3973 52.6377 16.2192C52.4017 17.033 52.2837 17.9404 52.2837 18.9414V21.1143C52.2837 22.1559 52.4139 23.0959 52.6743 23.9341C52.9429 24.7723 53.3254 25.4925 53.8218 26.0947C54.3182 26.6969 54.9123 27.1608 55.604 27.4863C56.2957 27.8037 57.0648 27.9624 57.9111 27.9624C58.8145 27.9624 59.5835 27.877 60.2183 27.7061C60.853 27.5352 61.3617 27.3317 61.7441 27.0957C62.1348 26.8516 62.4155 26.6237 62.5864 26.4121V21.8345H57.8135V20.5527H64.0757ZM81.4951 19.1611V21.0654C81.4951 22.3105 81.3324 23.4377 81.0068 24.4468C80.6895 25.4478 80.2256 26.3063 79.6152 27.0225C79.013 27.7386 78.2887 28.2879 77.4424 28.6704C76.596 29.0529 75.6439 29.2441 74.5859 29.2441C73.5524 29.2441 72.6084 29.0529 71.7539 28.6704C70.9076 28.2879 70.1792 27.7386 69.5688 27.0225C68.9585 26.3063 68.4865 25.4478 68.1528 24.4468C67.8192 23.4377 67.6523 22.3105 67.6523 21.0654V19.1611C67.6523 17.916 67.8151 16.793 68.1406 15.792C68.4743 14.7829 68.9463 13.9202 69.5566 13.2041C70.167 12.488 70.8953 11.9386 71.7417 11.5562C72.5881 11.1737 73.528 10.9824 74.5615 10.9824C75.6195 10.9824 76.5716 11.1737 77.418 11.5562C78.2643 11.9386 78.9927 12.488 79.603 13.2041C80.2134 13.9202 80.6813 14.7829 81.0068 15.792C81.3324 16.793 81.4951 17.916 81.4951 19.1611ZM80.0059 21.0654V19.1367C80.0059 18.0869 79.8838 17.1429 79.6396 16.3047C79.4036 15.4665 79.0496 14.7503 78.5776 14.1562C78.1138 13.5622 77.5441 13.1064 76.8687 12.7891C76.1932 12.4717 75.4242 12.313 74.5615 12.313C73.7233 12.313 72.9705 12.4717 72.3032 12.7891C71.6359 13.1064 71.0662 13.5622 70.5942 14.1562C70.1304 14.7503 69.7723 15.4665 69.52 16.3047C69.2759 17.1429 69.1538 18.0869 69.1538 19.1367V21.0654C69.1538 22.1234 69.2759 23.0755 69.52 23.9219C69.7723 24.7601 70.1344 25.4803 70.6064 26.0825C71.0785 26.6766 71.6481 27.1323 72.3154 27.4497C72.9909 27.7671 73.7477 27.9258 74.5859 27.9258C75.4567 27.9258 76.2257 27.7671 76.8931 27.4497C77.5604 27.1323 78.126 26.6766 78.5898 26.0825C79.0537 25.4803 79.4036 24.7601 79.6396 23.9219C79.8838 23.0755 80.0059 22.1234 80.0059 21.0654ZM96.8638 11.2266V29H95.3745V11.2266H96.8638ZM102.955 11.2266V12.5205H89.2954V11.2266H102.955ZM118.629 19.1611V21.0654C118.629 22.3105 118.466 23.4377 118.141 24.4468C117.823 25.4478 117.359 26.3063 116.749 27.0225C116.147 27.7386 115.423 28.2879 114.576 28.6704C113.73 29.0529 112.778 29.2441 111.72 29.2441C110.686 29.2441 109.742 29.0529 108.888 28.6704C108.041 28.2879 107.313 27.7386 106.703 27.0225C106.092 26.3063 105.62 25.4478 105.287 24.4468C104.953 23.4377 104.786 22.3105 104.786 21.0654V19.1611C104.786 17.916 104.949 16.793 105.274 15.792C105.608 14.7829 106.08 13.9202 106.69 13.2041C107.301 12.488 108.029 11.9386 108.875 11.5562C109.722 11.1737 110.662 10.9824 111.695 10.9824C112.753 10.9824 113.705 11.1737 114.552 11.5562C115.398 11.9386 116.126 12.488 116.737 13.2041C117.347 13.9202 117.815 14.7829 118.141 15.792C118.466 16.793 118.629 17.916 118.629 19.1611ZM117.14 21.0654V19.1367C117.14 18.0869 117.018 17.1429 116.773 16.3047C116.537 15.4665 116.183 14.7503 115.711 14.1562C115.248 13.5622 114.678 13.1064 114.002 12.7891C113.327 12.4717 112.558 12.313 111.695 12.313C110.857 12.313 110.104 12.4717 109.437 12.7891C108.77 13.1064 108.2 13.5622 107.728 14.1562C107.264 14.7503 106.906 15.4665 106.654 16.3047C106.41 17.1429 106.288 18.0869 106.288 19.1367V21.0654C106.288 22.1234 106.41 23.0755 106.654 23.9219C106.906 24.7601 107.268 25.4803 107.74 26.0825C108.212 26.6766 108.782 27.1323 109.449 27.4497C110.125 27.7671 110.882 27.9258 111.72 27.9258C112.59 27.9258 113.36 27.7671 114.027 27.4497C114.694 27.1323 115.26 26.6766 115.724 26.0825C116.188 25.4803 116.537 24.7601 116.773 23.9219C117.018 23.0755 117.14 22.1234 117.14 21.0654ZM142.042 19.7104V26.7539C141.765 27.0876 141.338 27.4497 140.76 27.8403C140.182 28.2228 139.438 28.5524 138.526 28.8291C137.615 29.1058 136.512 29.2441 135.218 29.2441C134.071 29.2441 133.025 29.057 132.081 28.6826C131.137 28.3001 130.323 27.7427 129.64 27.0103C128.964 26.2778 128.443 25.3826 128.077 24.3247C127.711 23.2586 127.528 22.042 127.528 20.6748V19.564C127.528 18.1968 127.703 16.9801 128.053 15.9141C128.411 14.848 128.919 13.9487 129.579 13.2163C130.238 12.4839 131.023 11.9264 131.935 11.5439C132.846 11.1615 133.859 10.9702 134.974 10.9702C136.52 10.9702 137.79 11.2225 138.783 11.7271C139.776 12.2235 140.532 12.9152 141.053 13.8022C141.582 14.6812 141.908 15.6903 142.03 16.8296H138.478C138.388 16.2274 138.217 15.7025 137.965 15.2549C137.713 14.8073 137.35 14.4574 136.878 14.2051C136.415 13.9528 135.812 13.8267 135.072 13.8267C134.461 13.8267 133.916 13.9528 133.436 14.2051C132.964 14.4492 132.565 14.8114 132.24 15.2915C131.914 15.7716 131.666 16.3657 131.495 17.0737C131.324 17.7817 131.239 18.6037 131.239 19.5396V20.6748C131.239 21.6025 131.328 22.4245 131.507 23.1406C131.686 23.8486 131.951 24.4468 132.301 24.9351C132.659 25.4152 133.098 25.7773 133.619 26.0215C134.14 26.2656 134.746 26.3877 135.438 26.3877C136.016 26.3877 136.496 26.3389 136.878 26.2412C137.269 26.1436 137.582 26.0256 137.818 25.8872C138.062 25.7407 138.25 25.6024 138.38 25.4722V22.3228H135.035V19.7104H142.042ZM147.438 11.2266L151.148 19.332L154.859 11.2266H158.851L153.004 22.5303V29H149.293V22.5303L143.434 11.2266H147.438ZM162.147 11.2266H165.248L169.813 24.2759L174.378 11.2266H177.479L171.058 29H168.568L162.147 11.2266ZM160.475 11.2266H163.563L164.125 23.9463V29H160.475V11.2266ZM176.063 11.2266H179.164V29H175.501V23.9463L176.063 11.2266ZM186.122 11.2266L185.719 23.5679H182.789L182.374 11.2266H186.122ZM182.276 27.3887C182.276 26.8678 182.455 26.4365 182.813 26.0947C183.18 25.7448 183.66 25.5698 184.254 25.5698C184.856 25.5698 185.336 25.7448 185.694 26.0947C186.052 26.4365 186.231 26.8678 186.231 27.3887C186.231 27.8932 186.052 28.3205 185.694 28.6704C185.336 29.0203 184.856 29.1953 184.254 29.1953C183.66 29.1953 183.18 29.0203 182.813 28.6704C182.455 28.3205 182.276 27.8932 182.276 27.3887Z" fill="white"/>
</svg>
